<mxfile host="app.diagrams.net" modified="2024-01-17T04:24:47.466Z" agent="Mozilla/5.0 (Windows NT 10.0; Win64; x64) AppleWebKit/537.36 (KHTML, like Gecko) Chrome/120.0.0.0 Safari/537.36" etag="lIUQHL87VsWqX5cVE0gz" version="22.1.18" type="device">
  <diagram name="Page-1" id="aRk5hDOHGnnmrq85o89h">
    <mxGraphModel dx="1434" dy="746" grid="1" gridSize="10" guides="1" tooltips="1" connect="1" arrows="1" fold="1" page="1" pageScale="1" pageWidth="850" pageHeight="1100" math="0" shadow="0">
      <root>
        <mxCell id="0" />
        <mxCell id="1" parent="0" />
        <mxCell id="EVU7PXSbK8tEOhxRx-Wr-1" value="Unuse space" style="rounded=0;whiteSpace=wrap;html=1;" parent="1" vertex="1">
          <mxGeometry x="500" y="210" width="410" height="60" as="geometry" />
        </mxCell>
        <mxCell id="EVU7PXSbK8tEOhxRx-Wr-2" value="&lt;font style=&quot;font-size: 16px;&quot;&gt;ref&lt;/font&gt;" style="edgeStyle=orthogonalEdgeStyle;rounded=0;orthogonalLoop=1;jettySize=auto;html=1;exitX=0.5;exitY=1;exitDx=0;exitDy=0;entryX=0.143;entryY=1;entryDx=0;entryDy=0;curved=1;entryPerimeter=0;" parent="1" source="EVU7PXSbK8tEOhxRx-Wr-3" target="EVU7PXSbK8tEOhxRx-Wr-6" edge="1">
          <mxGeometry relative="1" as="geometry">
            <Array as="points">
              <mxPoint x="80" y="290" />
              <mxPoint x="130" y="290" />
              <mxPoint x="130" y="300" />
              <mxPoint x="150" y="300" />
            </Array>
          </mxGeometry>
        </mxCell>
        <mxCell id="EVU7PXSbK8tEOhxRx-Wr-3" value="A" style="rounded=0;whiteSpace=wrap;html=1;fillColor=#dae8fc;strokeColor=#6c8ebf;" parent="1" vertex="1">
          <mxGeometry x="20" y="210" width="120" height="60" as="geometry" />
        </mxCell>
        <mxCell id="EVU7PXSbK8tEOhxRx-Wr-4" value="&lt;font style=&quot;font-size: 16px;&quot;&gt;ref&lt;/font&gt;" style="edgeStyle=orthogonalEdgeStyle;rounded=0;orthogonalLoop=1;jettySize=auto;html=1;exitX=0.5;exitY=1;exitDx=0;exitDy=0;entryX=0.5;entryY=1;entryDx=0;entryDy=0;curved=1;" parent="1" source="EVU7PXSbK8tEOhxRx-Wr-6" target="EVU7PXSbK8tEOhxRx-Wr-9" edge="1">
          <mxGeometry relative="1" as="geometry" />
        </mxCell>
        <mxCell id="EVU7PXSbK8tEOhxRx-Wr-5" value="&lt;font style=&quot;font-size: 16px;&quot;&gt;ref&lt;/font&gt;" style="edgeStyle=orthogonalEdgeStyle;rounded=0;orthogonalLoop=1;jettySize=auto;html=1;exitX=0.5;exitY=1;exitDx=0;exitDy=0;entryX=0.5;entryY=1;entryDx=0;entryDy=0;curved=1;" parent="1" source="EVU7PXSbK8tEOhxRx-Wr-6" target="EVU7PXSbK8tEOhxRx-Wr-14" edge="1">
          <mxGeometry relative="1" as="geometry">
            <Array as="points">
              <mxPoint x="175" y="320" />
              <mxPoint x="475" y="320" />
            </Array>
          </mxGeometry>
        </mxCell>
        <mxCell id="EVU7PXSbK8tEOhxRx-Wr-6" value="B" style="rounded=0;whiteSpace=wrap;html=1;fillColor=#dae8fc;strokeColor=#6c8ebf;" parent="1" vertex="1">
          <mxGeometry x="140" y="210" width="70" height="60" as="geometry" />
        </mxCell>
        <mxCell id="EVU7PXSbK8tEOhxRx-Wr-7" value="C" style="rounded=0;whiteSpace=wrap;html=1;dashed=1;" parent="1" vertex="1">
          <mxGeometry x="210" y="210" width="120" height="60" as="geometry" />
        </mxCell>
        <mxCell id="EVU7PXSbK8tEOhxRx-Wr-8" value="&lt;font style=&quot;font-size: 16px;&quot;&gt;NextObjPtr&lt;/font&gt;" style="endArrow=classic;html=1;rounded=0;" parent="1" edge="1">
          <mxGeometry width="50" height="50" relative="1" as="geometry">
            <mxPoint x="500" y="150" as="sourcePoint" />
            <mxPoint x="500" y="210" as="targetPoint" />
          </mxGeometry>
        </mxCell>
        <mxCell id="k5vtKZNniar53S71M5yK-1" value="&lt;font style=&quot;font-size: 16px;&quot;&gt;move&lt;/font&gt;" style="edgeStyle=orthogonalEdgeStyle;rounded=0;orthogonalLoop=1;jettySize=auto;html=1;exitX=0;exitY=0;exitDx=0;exitDy=0;entryX=1;entryY=0;entryDx=0;entryDy=0;curved=1;fillColor=#f8cecc;strokeColor=#b85450;" edge="1" parent="1" source="EVU7PXSbK8tEOhxRx-Wr-9" target="EVU7PXSbK8tEOhxRx-Wr-6">
          <mxGeometry relative="1" as="geometry" />
        </mxCell>
        <mxCell id="EVU7PXSbK8tEOhxRx-Wr-9" value="D" style="rounded=0;whiteSpace=wrap;html=1;fillColor=#dae8fc;strokeColor=#6c8ebf;" parent="1" vertex="1">
          <mxGeometry x="330" y="210" width="120" height="60" as="geometry" />
        </mxCell>
        <mxCell id="EVU7PXSbK8tEOhxRx-Wr-10" value="&lt;font style=&quot;font-size: 16px;&quot;&gt;ref&lt;/font&gt;" style="edgeStyle=orthogonalEdgeStyle;rounded=0;orthogonalLoop=1;jettySize=auto;html=1;exitX=0.25;exitY=1;exitDx=0;exitDy=0;entryX=0.25;entryY=0;entryDx=0;entryDy=0;curved=1;" parent="1" source="EVU7PXSbK8tEOhxRx-Wr-13" target="EVU7PXSbK8tEOhxRx-Wr-3" edge="1">
          <mxGeometry relative="1" as="geometry" />
        </mxCell>
        <mxCell id="EVU7PXSbK8tEOhxRx-Wr-12" value="&lt;font style=&quot;font-size: 16px;&quot;&gt;ref&lt;/font&gt;" style="edgeStyle=orthogonalEdgeStyle;rounded=0;orthogonalLoop=1;jettySize=auto;html=1;exitX=0.75;exitY=1;exitDx=0;exitDy=0;entryX=0.5;entryY=0;entryDx=0;entryDy=0;curved=1;" parent="1" source="EVU7PXSbK8tEOhxRx-Wr-13" target="EVU7PXSbK8tEOhxRx-Wr-14" edge="1">
          <mxGeometry relative="1" as="geometry" />
        </mxCell>
        <mxCell id="EVU7PXSbK8tEOhxRx-Wr-13" value="&lt;font style=&quot;font-size: 16px;&quot;&gt;VM stack&lt;/font&gt;" style="rounded=0;whiteSpace=wrap;html=1;fillColor=#dae8fc;strokeColor=#6c8ebf;" parent="1" vertex="1">
          <mxGeometry x="130" y="40" width="90" height="40" as="geometry" />
        </mxCell>
        <mxCell id="k5vtKZNniar53S71M5yK-3" value="&lt;font style=&quot;font-size: 16px;&quot;&gt;move&lt;/font&gt;" style="edgeStyle=orthogonalEdgeStyle;rounded=0;orthogonalLoop=1;jettySize=auto;html=1;exitX=0;exitY=0;exitDx=0;exitDy=0;entryX=1;entryY=0;entryDx=0;entryDy=0;curved=1;fillColor=#f8cecc;strokeColor=#b85450;" edge="1" parent="1" source="EVU7PXSbK8tEOhxRx-Wr-14" target="EVU7PXSbK8tEOhxRx-Wr-7">
          <mxGeometry relative="1" as="geometry" />
        </mxCell>
        <mxCell id="EVU7PXSbK8tEOhxRx-Wr-14" value="E" style="rounded=0;whiteSpace=wrap;html=1;fillColor=#dae8fc;strokeColor=#6c8ebf;" parent="1" vertex="1">
          <mxGeometry x="450" y="210" width="50" height="60" as="geometry" />
        </mxCell>
        <mxCell id="k5vtKZNniar53S71M5yK-4" value="Unuse space" style="rounded=0;whiteSpace=wrap;html=1;" vertex="1" parent="1">
          <mxGeometry x="380" y="590" width="530" height="60" as="geometry" />
        </mxCell>
        <mxCell id="k5vtKZNniar53S71M5yK-5" value="&lt;font style=&quot;font-size: 16px;&quot;&gt;ref&lt;/font&gt;" style="edgeStyle=orthogonalEdgeStyle;rounded=0;orthogonalLoop=1;jettySize=auto;html=1;exitX=0.5;exitY=1;exitDx=0;exitDy=0;entryX=0.143;entryY=1;entryDx=0;entryDy=0;curved=1;entryPerimeter=0;" edge="1" parent="1" source="k5vtKZNniar53S71M5yK-6" target="k5vtKZNniar53S71M5yK-9">
          <mxGeometry relative="1" as="geometry">
            <Array as="points">
              <mxPoint x="80" y="670" />
              <mxPoint x="130" y="670" />
              <mxPoint x="130" y="680" />
              <mxPoint x="150" y="680" />
            </Array>
          </mxGeometry>
        </mxCell>
        <mxCell id="k5vtKZNniar53S71M5yK-6" value="A" style="rounded=0;whiteSpace=wrap;html=1;fillColor=#dae8fc;strokeColor=#6c8ebf;" vertex="1" parent="1">
          <mxGeometry x="20" y="590" width="120" height="60" as="geometry" />
        </mxCell>
        <mxCell id="k5vtKZNniar53S71M5yK-7" value="&lt;font style=&quot;font-size: 16px;&quot;&gt;ref&lt;/font&gt;" style="edgeStyle=orthogonalEdgeStyle;rounded=0;orthogonalLoop=1;jettySize=auto;html=1;exitX=0.5;exitY=1;exitDx=0;exitDy=0;entryX=0.5;entryY=1;entryDx=0;entryDy=0;curved=1;" edge="1" parent="1" source="k5vtKZNniar53S71M5yK-9" target="k5vtKZNniar53S71M5yK-13">
          <mxGeometry relative="1" as="geometry" />
        </mxCell>
        <mxCell id="k5vtKZNniar53S71M5yK-8" value="&lt;font style=&quot;font-size: 16px;&quot;&gt;ref&lt;/font&gt;" style="edgeStyle=orthogonalEdgeStyle;rounded=0;orthogonalLoop=1;jettySize=auto;html=1;exitX=0.5;exitY=1;exitDx=0;exitDy=0;entryX=0.5;entryY=1;entryDx=0;entryDy=0;curved=1;" edge="1" parent="1" source="k5vtKZNniar53S71M5yK-9" target="k5vtKZNniar53S71M5yK-18">
          <mxGeometry relative="1" as="geometry">
            <Array as="points">
              <mxPoint x="175" y="700" />
              <mxPoint x="330" y="700" />
              <mxPoint x="330" y="670" />
              <mxPoint x="355" y="670" />
            </Array>
          </mxGeometry>
        </mxCell>
        <mxCell id="k5vtKZNniar53S71M5yK-9" value="B" style="rounded=0;whiteSpace=wrap;html=1;fillColor=#dae8fc;strokeColor=#6c8ebf;" vertex="1" parent="1">
          <mxGeometry x="140" y="590" width="70" height="60" as="geometry" />
        </mxCell>
        <mxCell id="k5vtKZNniar53S71M5yK-11" value="&lt;font style=&quot;font-size: 16px;&quot;&gt;NextObjPtr&lt;/font&gt;" style="endArrow=classic;html=1;rounded=0;" edge="1" parent="1">
          <mxGeometry width="50" height="50" relative="1" as="geometry">
            <mxPoint x="380" y="530" as="sourcePoint" />
            <mxPoint x="380" y="590" as="targetPoint" />
          </mxGeometry>
        </mxCell>
        <mxCell id="k5vtKZNniar53S71M5yK-13" value="D" style="rounded=0;whiteSpace=wrap;html=1;fillColor=#dae8fc;strokeColor=#6c8ebf;" vertex="1" parent="1">
          <mxGeometry x="210" y="590" width="120" height="60" as="geometry" />
        </mxCell>
        <mxCell id="k5vtKZNniar53S71M5yK-14" value="&lt;font style=&quot;font-size: 16px;&quot;&gt;ref&lt;/font&gt;" style="edgeStyle=orthogonalEdgeStyle;rounded=0;orthogonalLoop=1;jettySize=auto;html=1;exitX=0.25;exitY=1;exitDx=0;exitDy=0;entryX=0.25;entryY=0;entryDx=0;entryDy=0;curved=1;" edge="1" parent="1" source="k5vtKZNniar53S71M5yK-16" target="k5vtKZNniar53S71M5yK-6">
          <mxGeometry relative="1" as="geometry" />
        </mxCell>
        <mxCell id="k5vtKZNniar53S71M5yK-15" value="&lt;font style=&quot;font-size: 16px;&quot;&gt;ref&lt;/font&gt;" style="edgeStyle=orthogonalEdgeStyle;rounded=0;orthogonalLoop=1;jettySize=auto;html=1;exitX=0.75;exitY=1;exitDx=0;exitDy=0;entryX=0.5;entryY=0;entryDx=0;entryDy=0;curved=1;" edge="1" parent="1" source="k5vtKZNniar53S71M5yK-16" target="k5vtKZNniar53S71M5yK-18">
          <mxGeometry relative="1" as="geometry" />
        </mxCell>
        <mxCell id="k5vtKZNniar53S71M5yK-16" value="&lt;font style=&quot;font-size: 16px;&quot;&gt;VM stack&lt;/font&gt;" style="rounded=0;whiteSpace=wrap;html=1;fillColor=#dae8fc;strokeColor=#6c8ebf;" vertex="1" parent="1">
          <mxGeometry x="130" y="420" width="90" height="40" as="geometry" />
        </mxCell>
        <mxCell id="k5vtKZNniar53S71M5yK-18" value="E" style="rounded=0;whiteSpace=wrap;html=1;fillColor=#dae8fc;strokeColor=#6c8ebf;" vertex="1" parent="1">
          <mxGeometry x="330" y="590" width="50" height="60" as="geometry" />
        </mxCell>
        <mxCell id="k5vtKZNniar53S71M5yK-19" value="" style="shape=flexArrow;endArrow=classic;html=1;rounded=0;" edge="1" parent="1">
          <mxGeometry width="50" height="50" relative="1" as="geometry">
            <mxPoint x="420" y="340" as="sourcePoint" />
            <mxPoint x="420" y="400" as="targetPoint" />
            <Array as="points">
              <mxPoint x="420" y="370" />
            </Array>
          </mxGeometry>
        </mxCell>
      </root>
    </mxGraphModel>
  </diagram>
</mxfile>
